%TF.GenerationSoftware,KiCad,Pcbnew,9.0.1*%
%TF.CreationDate,2025-04-29T00:54:00-03:00*%
%TF.ProjectId,Breadboard Power Supply,42726561-6462-46f6-9172-6420506f7765,rev?*%
%TF.SameCoordinates,Original*%
%TF.FileFunction,Soldermask,Bot*%
%TF.FilePolarity,Negative*%
%FSLAX46Y46*%
G04 Gerber Fmt 4.6, Leading zero omitted, Abs format (unit mm)*
G04 Created by KiCad (PCBNEW 9.0.1) date 2025-04-29 00:54:00*
%MOMM*%
%LPD*%
G01*
G04 APERTURE LIST*
G04 Aperture macros list*
%AMRoundRect*
0 Rectangle with rounded corners*
0 $1 Rounding radius*
0 $2 $3 $4 $5 $6 $7 $8 $9 X,Y pos of 4 corners*
0 Add a 4 corners polygon primitive as box body*
4,1,4,$2,$3,$4,$5,$6,$7,$8,$9,$2,$3,0*
0 Add four circle primitives for the rounded corners*
1,1,$1+$1,$2,$3*
1,1,$1+$1,$4,$5*
1,1,$1+$1,$6,$7*
1,1,$1+$1,$8,$9*
0 Add four rect primitives between the rounded corners*
20,1,$1+$1,$2,$3,$4,$5,0*
20,1,$1+$1,$4,$5,$6,$7,0*
20,1,$1+$1,$6,$7,$8,$9,0*
20,1,$1+$1,$8,$9,$2,$3,0*%
G04 Aperture macros list end*
%ADD10R,1.700000X1.700000*%
%ADD11C,1.700000*%
%ADD12R,3.500000X3.500000*%
%ADD13RoundRect,0.750000X-0.750000X-1.000000X0.750000X-1.000000X0.750000X1.000000X-0.750000X1.000000X0*%
%ADD14RoundRect,0.875000X-0.875000X-0.875000X0.875000X-0.875000X0.875000X0.875000X-0.875000X0.875000X0*%
%ADD15C,1.600000*%
%ADD16C,1.400000*%
%ADD17O,1.400000X1.400000*%
%ADD18R,1.900000X1.900000*%
%ADD19C,1.900000*%
%ADD20R,1.800000X1.400000*%
%ADD21O,1.800000X1.400000*%
%ADD22R,3.000000X3.000000*%
%ADD23C,3.000000*%
%ADD24R,1.905000X2.000000*%
%ADD25O,1.905000X2.000000*%
G04 APERTURE END LIST*
D10*
%TO.C,J1*%
X179200000Y-47725000D03*
D11*
X179200000Y-50265000D03*
%TD*%
D12*
%TO.C,J5*%
X162600000Y-70600000D03*
D13*
X156600000Y-70600000D03*
D14*
X159600000Y-75300000D03*
%TD*%
D10*
%TO.C,J3*%
X154020000Y-96200000D03*
D11*
X156560000Y-96200000D03*
X159100000Y-96200000D03*
%TD*%
D15*
%TO.C,C1*%
X158600000Y-51600000D03*
X161100000Y-51600000D03*
%TD*%
D10*
%TO.C,J2*%
X179200000Y-93500000D03*
D11*
X179200000Y-96040000D03*
%TD*%
D16*
%TO.C,R2*%
X167580000Y-79100000D03*
D17*
X175200000Y-79100000D03*
%TD*%
D16*
%TO.C,R3*%
X167580000Y-82250000D03*
D17*
X175200000Y-82250000D03*
%TD*%
D18*
%TO.C,S1*%
X173000000Y-60700000D03*
D19*
X170500000Y-60700000D03*
X168000000Y-60700000D03*
%TD*%
D20*
%TO.C,D1*%
X171600000Y-72040000D03*
D21*
X171600000Y-69500000D03*
%TD*%
D15*
%TO.C,C2*%
X156700000Y-89800000D03*
X159200000Y-89800000D03*
%TD*%
D10*
%TO.C,J6*%
X154120000Y-47500000D03*
D11*
X156660000Y-47500000D03*
X159200000Y-47500000D03*
%TD*%
D22*
%TO.C,J7*%
X166320000Y-94000000D03*
D23*
X171400000Y-94000000D03*
%TD*%
D24*
%TO.C,U1*%
X159500000Y-57700000D03*
D25*
X156960000Y-57700000D03*
X154420000Y-57700000D03*
%TD*%
D24*
%TO.C,U2*%
X154320000Y-83100000D03*
D25*
X156860000Y-83100000D03*
X159400000Y-83100000D03*
%TD*%
D16*
%TO.C,R1*%
X167780000Y-65200000D03*
D17*
X175400000Y-65200000D03*
%TD*%
D15*
%TO.C,C3*%
X152900000Y-51600000D03*
X155400000Y-51600000D03*
%TD*%
D22*
%TO.C,J4*%
X166260000Y-49800000D03*
D23*
X171340000Y-49800000D03*
%TD*%
M02*
