M48
; DRILL file {KiCad 9.0.1} date 2025-04-29T00:54:02-0300
; FORMAT={-:-/ absolute / inch / decimal}
; #@! TF.CreationDate,2025-04-29T00:54:02-03:00
; #@! TF.GenerationSoftware,Kicad,Pcbnew,9.0.1
; #@! TF.FileFunction,Plated,1,2,PTH
FMAT,2
INCH
; #@! TA.AperFunction,Plated,PTH,ViaDrill
T1C0.0197
; #@! TA.AperFunction,Plated,PTH,ComponentDrill
T2C0.0276
; #@! TA.AperFunction,Plated,PTH,ComponentDrill
T3C0.0315
; #@! TA.AperFunction,Plated,PTH,ComponentDrill
T4C0.0354
; #@! TA.AperFunction,Plated,PTH,ComponentDrill
T5C0.0394
; #@! TA.AperFunction,Plated,PTH,ComponentDrill
T6C0.0433
; #@! TA.AperFunction,Plated,PTH,ComponentDrill
T7C0.0598
%
G90
G05
T1
X6.5639Y-2.2347
T2
X6.5976Y-3.1142
X6.5976Y-3.2382
X6.6055Y-2.5669
X6.8976Y-3.1142
X6.8976Y-3.2382
X6.9055Y-2.5669
T3
X6.0197Y-2.0315
X6.1181Y-2.0315
X6.1693Y-3.5354
X6.2441Y-2.0315
X6.2677Y-3.5354
X6.3425Y-2.0315
X6.7559Y-2.7362
X6.7559Y-2.8362
T4
X6.6142Y-2.3898
X6.7126Y-2.3898
X6.811Y-2.3898
T5
X6.0638Y-3.7874
X6.0677Y-1.8701
X6.1638Y-3.7874
X6.1677Y-1.8701
X6.2638Y-3.7874
X6.2677Y-1.8701
X7.0551Y-1.8789
X7.0551Y-1.9789
X7.0551Y-3.6811
X7.0551Y-3.7811
T6
X6.0756Y-3.2717
X6.0795Y-2.2717
X6.1756Y-3.2717
X6.1795Y-2.2717
X6.2756Y-3.2717
X6.2795Y-2.2717
T7
X6.5457Y-1.9606
X6.548Y-3.7008
X6.7457Y-1.9606
X6.748Y-3.7008
T5
G00X6.1654Y-2.7402
M15
G01X6.1654Y-2.8189
M16
G05
G00X6.2441Y-2.9646
M15
G01X6.3228Y-2.9646
M16
G05
G00X6.4016Y-2.7402
M15
G01X6.4016Y-2.8189
M16
G05
M30
