%TF.GenerationSoftware,KiCad,Pcbnew,9.0.1*%
%TF.CreationDate,2025-04-29T00:54:00-03:00*%
%TF.ProjectId,Breadboard Power Supply,42726561-6462-46f6-9172-6420506f7765,rev?*%
%TF.SameCoordinates,Original*%
%TF.FileFunction,Copper,L1,Top*%
%TF.FilePolarity,Positive*%
%FSLAX46Y46*%
G04 Gerber Fmt 4.6, Leading zero omitted, Abs format (unit mm)*
G04 Created by KiCad (PCBNEW 9.0.1) date 2025-04-29 00:54:00*
%MOMM*%
%LPD*%
G01*
G04 APERTURE LIST*
G04 Aperture macros list*
%AMRoundRect*
0 Rectangle with rounded corners*
0 $1 Rounding radius*
0 $2 $3 $4 $5 $6 $7 $8 $9 X,Y pos of 4 corners*
0 Add a 4 corners polygon primitive as box body*
4,1,4,$2,$3,$4,$5,$6,$7,$8,$9,$2,$3,0*
0 Add four circle primitives for the rounded corners*
1,1,$1+$1,$2,$3*
1,1,$1+$1,$4,$5*
1,1,$1+$1,$6,$7*
1,1,$1+$1,$8,$9*
0 Add four rect primitives between the rounded corners*
20,1,$1+$1,$2,$3,$4,$5,0*
20,1,$1+$1,$4,$5,$6,$7,0*
20,1,$1+$1,$6,$7,$8,$9,0*
20,1,$1+$1,$8,$9,$2,$3,0*%
G04 Aperture macros list end*
%TA.AperFunction,ComponentPad*%
%ADD10R,1.700000X1.700000*%
%TD*%
%TA.AperFunction,ComponentPad*%
%ADD11C,1.700000*%
%TD*%
%TA.AperFunction,ComponentPad*%
%ADD12R,3.500000X3.500000*%
%TD*%
%TA.AperFunction,ComponentPad*%
%ADD13RoundRect,0.750000X-0.750000X-1.000000X0.750000X-1.000000X0.750000X1.000000X-0.750000X1.000000X0*%
%TD*%
%TA.AperFunction,ComponentPad*%
%ADD14RoundRect,0.875000X-0.875000X-0.875000X0.875000X-0.875000X0.875000X0.875000X-0.875000X0.875000X0*%
%TD*%
%TA.AperFunction,ComponentPad*%
%ADD15C,1.600000*%
%TD*%
%TA.AperFunction,ComponentPad*%
%ADD16C,1.400000*%
%TD*%
%TA.AperFunction,ComponentPad*%
%ADD17O,1.400000X1.400000*%
%TD*%
%TA.AperFunction,ComponentPad*%
%ADD18R,1.900000X1.900000*%
%TD*%
%TA.AperFunction,ComponentPad*%
%ADD19C,1.900000*%
%TD*%
%TA.AperFunction,ComponentPad*%
%ADD20R,1.800000X1.400000*%
%TD*%
%TA.AperFunction,ComponentPad*%
%ADD21O,1.800000X1.400000*%
%TD*%
%TA.AperFunction,ComponentPad*%
%ADD22R,3.000000X3.000000*%
%TD*%
%TA.AperFunction,ComponentPad*%
%ADD23C,3.000000*%
%TD*%
%TA.AperFunction,ComponentPad*%
%ADD24R,1.905000X2.000000*%
%TD*%
%TA.AperFunction,ComponentPad*%
%ADD25O,1.905000X2.000000*%
%TD*%
%TA.AperFunction,ViaPad*%
%ADD26C,0.900000*%
%TD*%
%TA.AperFunction,Conductor*%
%ADD27C,0.250000*%
%TD*%
%TA.AperFunction,Conductor*%
%ADD28C,0.350000*%
%TD*%
G04 APERTURE END LIST*
D10*
%TO.P,J1,1,Pin_1*%
%TO.N,/PWR_OUT_BOTTOM*%
X179200000Y-47725000D03*
D11*
%TO.P,J1,2,Pin_2*%
%TO.N,GND*%
X179200000Y-50265000D03*
%TD*%
D12*
%TO.P,J5,1*%
%TO.N,/PWR_input*%
X162600000Y-70600000D03*
D13*
%TO.P,J5,2*%
%TO.N,GND*%
X156600000Y-70600000D03*
D14*
%TO.P,J5,3*%
X159600000Y-75300000D03*
%TD*%
D10*
%TO.P,J3,1,Pin_1*%
%TO.N,/5V*%
X154020000Y-96200000D03*
D11*
%TO.P,J3,2,Pin_2*%
%TO.N,/PWR_OUT_BOTTOM*%
X156560000Y-96200000D03*
%TO.P,J3,3,Pin_3*%
%TO.N,/3.3V*%
X159100000Y-96200000D03*
%TD*%
D15*
%TO.P,C1,1*%
%TO.N,/12V*%
X158600000Y-51600000D03*
%TO.P,C1,2*%
%TO.N,GND*%
X161100000Y-51600000D03*
%TD*%
D10*
%TO.P,J2,1,Pin_1*%
%TO.N,/PWR_OUT_TOP*%
X179200000Y-93500000D03*
D11*
%TO.P,J2,2,Pin_2*%
%TO.N,GND*%
X179200000Y-96040000D03*
%TD*%
D16*
%TO.P,R2,1*%
%TO.N,Net-(U2-ADJ)*%
X167580000Y-79100000D03*
D17*
%TO.P,R2,2*%
%TO.N,/3.3V*%
X175200000Y-79100000D03*
%TD*%
D16*
%TO.P,R3,1*%
%TO.N,GND*%
X167580000Y-82250000D03*
D17*
%TO.P,R3,2*%
%TO.N,Net-(U2-ADJ)*%
X175200000Y-82250000D03*
%TD*%
D18*
%TO.P,S1,1*%
%TO.N,/12V*%
X173000000Y-60700000D03*
D19*
%TO.P,S1,2*%
%TO.N,/PWR_input*%
X170500000Y-60700000D03*
%TO.P,S1,3*%
%TO.N,unconnected-(S1-Pad3)*%
X168000000Y-60700000D03*
%TD*%
D20*
%TO.P,D1,1,K*%
%TO.N,GND*%
X171600000Y-72040000D03*
D21*
%TO.P,D1,2,A*%
%TO.N,Net-(D1-A)*%
X171600000Y-69500000D03*
%TD*%
D15*
%TO.P,C2,1*%
%TO.N,/3.3V*%
X156700000Y-89800000D03*
%TO.P,C2,2*%
%TO.N,GND*%
X159200000Y-89800000D03*
%TD*%
D10*
%TO.P,J6,1,Pin_1*%
%TO.N,/5V*%
X154120000Y-47500000D03*
D11*
%TO.P,J6,2,Pin_2*%
%TO.N,/PWR_OUT_TOP*%
X156660000Y-47500000D03*
%TO.P,J6,3,Pin_3*%
%TO.N,/3.3V*%
X159200000Y-47500000D03*
%TD*%
D22*
%TO.P,J7,1,Pin_1*%
%TO.N,/PWR_OUT_TOP*%
X166320000Y-94000000D03*
D23*
%TO.P,J7,2,Pin_2*%
%TO.N,GND*%
X171400000Y-94000000D03*
%TD*%
D24*
%TO.P,U1,1,VI*%
%TO.N,/12V*%
X159500000Y-57700000D03*
D25*
%TO.P,U1,2,GND*%
%TO.N,GND*%
X156960000Y-57700000D03*
%TO.P,U1,3,VO*%
%TO.N,/5V*%
X154420000Y-57700000D03*
%TD*%
D24*
%TO.P,U2,1,ADJ*%
%TO.N,Net-(U2-ADJ)*%
X154320000Y-83100000D03*
D25*
%TO.P,U2,2,VO*%
%TO.N,/3.3V*%
X156860000Y-83100000D03*
%TO.P,U2,3,VI*%
%TO.N,/12V*%
X159400000Y-83100000D03*
%TD*%
D16*
%TO.P,R1,1*%
%TO.N,Net-(D1-A)*%
X167780000Y-65200000D03*
D17*
%TO.P,R1,2*%
%TO.N,/12V*%
X175400000Y-65200000D03*
%TD*%
D15*
%TO.P,C3,1*%
%TO.N,/5V*%
X152900000Y-51600000D03*
%TO.P,C3,2*%
%TO.N,GND*%
X155400000Y-51600000D03*
%TD*%
D22*
%TO.P,J4,1,Pin_1*%
%TO.N,/PWR_OUT_BOTTOM*%
X166260000Y-49800000D03*
D23*
%TO.P,J4,2,Pin_2*%
%TO.N,GND*%
X171340000Y-49800000D03*
%TD*%
D26*
%TO.N,/PWR_OUT_TOP*%
X166723300Y-56762500D03*
%TD*%
D27*
%TO.N,GND*%
X159600000Y-75300000D02*
X156600000Y-72300000D01*
X156600000Y-72300000D02*
X156600000Y-70600000D01*
X171600000Y-78230000D02*
X167580000Y-82250000D01*
X156960000Y-57700000D02*
X156960000Y-53160000D01*
X167580000Y-90180000D02*
X171400000Y-94000000D01*
X171600000Y-72040000D02*
X171600000Y-78230000D01*
X156960000Y-70240000D02*
X156960000Y-57700000D01*
X156960000Y-53160000D02*
X155400000Y-51600000D01*
X167580000Y-82250000D02*
X167580000Y-90180000D01*
X156600000Y-70600000D02*
X156960000Y-70240000D01*
D28*
%TO.N,/12V*%
X175400000Y-65200000D02*
X175400000Y-64073300D01*
X161835000Y-82044300D02*
X161835000Y-73914000D01*
X158600000Y-55373300D02*
X159500000Y-56273300D01*
X158600000Y-51600000D02*
X158600000Y-55373300D01*
X159500000Y-71656300D02*
X159500000Y-57700000D01*
X160964000Y-73120000D02*
X159500000Y-71656300D01*
X161041000Y-73120000D02*
X160964000Y-73120000D01*
X173000000Y-60700000D02*
X173000000Y-62076700D01*
X159500000Y-57700000D02*
X159500000Y-56273300D01*
X174997000Y-64073300D02*
X175400000Y-64073300D01*
X159400000Y-83100000D02*
X160779000Y-83100000D01*
X160779000Y-83100000D02*
X161835000Y-82044300D01*
X161835000Y-73914000D02*
X161041000Y-73120000D01*
X173000000Y-62076700D02*
X174997000Y-64073300D01*
%TO.N,/3.3V*%
X164777000Y-80020400D02*
X160232000Y-84565600D01*
X157567500Y-84565600D02*
X157528600Y-84526700D01*
X160232000Y-84565600D02*
X157567500Y-84565600D01*
X157528600Y-84526700D02*
X156860000Y-84526700D01*
X159100000Y-96200000D02*
X159100000Y-92040000D01*
X156860000Y-89800000D02*
X156700000Y-89800000D01*
X159100000Y-92040000D02*
X156860000Y-89800000D01*
X156860000Y-84526700D02*
X156860000Y-83100000D01*
X156860000Y-83100000D02*
X156860000Y-84526700D01*
X156860000Y-89800000D02*
X156860000Y-84526700D01*
X157567500Y-84565600D02*
X156860000Y-84565600D01*
X159200000Y-47500000D02*
X164777000Y-53076700D01*
X164777000Y-53076700D02*
X164777000Y-80020400D01*
%TO.N,/5V*%
X152900000Y-49996700D02*
X154120000Y-48776700D01*
X153041000Y-51740800D02*
X152900000Y-51600000D01*
X154020000Y-94923300D02*
X152941000Y-93844100D01*
X154120000Y-47500000D02*
X154120000Y-48776700D01*
X152941000Y-57800000D02*
X153041000Y-57700000D01*
X153041000Y-57700000D02*
X153041000Y-51740800D01*
X154020000Y-96200000D02*
X154020000Y-94923300D01*
X152900000Y-51600000D02*
X152900000Y-49996700D01*
X154420000Y-57700000D02*
X153041000Y-57700000D01*
X152941000Y-93844100D02*
X152941000Y-57800000D01*
%TO.N,/PWR_OUT_BOTTOM*%
X166260000Y-49800000D02*
X166260000Y-51726700D01*
X165658300Y-52328400D02*
X165658300Y-85074400D01*
X161287800Y-89444900D02*
X161287800Y-95856300D01*
X166260000Y-51726700D02*
X165658300Y-52328400D01*
X159644300Y-97499800D02*
X157859800Y-97499800D01*
X165658300Y-85074400D02*
X161287800Y-89444900D01*
X161287800Y-95856300D02*
X159644300Y-97499800D01*
X157859800Y-97499800D02*
X156560000Y-96200000D01*
%TO.N,/PWR_OUT_TOP*%
X166723300Y-56762500D02*
X166320000Y-57165800D01*
X166723300Y-56762500D02*
X166723300Y-54532600D01*
X166723300Y-54532600D02*
X166723300Y-56762500D01*
X166320000Y-57165800D02*
X166320000Y-94000000D01*
%TD*%
M02*
